<?xml version="1.0" encoding="iso-8859-1"?>
<!-- Generator: Adobe Illustrator 19.0.0, SVG Export Plug-In . SVG Version: 6.00 Build 0)  -->
<svg version="1.1" id="Layer_1" xmlns="http://www.w3.org/2000/svg" xmlns:xlink="http://www.w3.org/1999/xlink" x="0px" y="0px"
	 viewBox="0 0 512 512" style="enable-background:new 0 0 512 512;" xml:space="preserve">
<polygon style="fill:#999999;" points="247.862,135.493 247.862,93.099 265.72,93.099 265.72,135.482 "/>
<g>
	<path style="fill:#B3B3B3;" d="M301.035,235.28l-12.625-12.632c8.659-8.654,13.428-20.163,13.428-32.407
		c0-12.244-4.769-23.753-13.428-32.407c-8.483-8.492-19.754-13.258-31.743-13.424c-12.497-0.18-24.245,4.59-33.077,13.422
		c-8.655,8.655-13.421,20.164-13.421,32.409s4.766,23.754,13.421,32.408l-12.627,12.628c-12.028-12.028-18.652-28.022-18.652-45.036
		s6.624-33.009,18.652-45.036c12.273-12.273,28.596-18.883,45.955-18.651c16.665,0.231,32.337,6.856,44.122,18.655
		c12.031,12.022,18.657,28.017,18.657,45.033S313.07,223.251,301.035,235.28z"/>
	<path style="fill:#B3B3B3;" d="M422.243,316.328H89.768c-4.931,0-8.929-3.998-8.929-8.929c0-4.931,3.998-8.929,8.929-8.929h332.475
		c4.931,0,8.929,3.998,8.929,8.929C431.172,312.33,427.174,316.328,422.243,316.328z"/>
</g>
<path style="fill:#2BA5F7;" d="M256.005,337.758c-4.931,0-8.929-3.998-8.929-8.929v-42.86c0-4.931,3.998-8.929,8.929-8.929
	c4.931,0,8.929,3.998,8.929,8.929v42.86C264.935,333.76,260.937,337.758,256.005,337.758z"/>
<polygon style="fill:#B3B3B3;" points="21.704,465.789 0,487.581 21.704,437.578 34.13,444.721 "/>
<g>
	<path style="fill:#F7B239;" d="M69.017,418.476l-47.313,47.313v-41.253l25.192-25.192C49.646,409.5,58.337,417.191,69.017,418.476z
		"/>
	<path style="fill:#F7B239;" d="M244.222,243.271l-57.813,57.813l-92.601,92.602c-1.286-10.679-8.989-19.382-19.132-22.121
		l70.481-70.481l78.434-78.434L244.222,243.271z"/>
</g>
<path style="fill:#B3B3B3;" d="M95.792,391.701c0.131,1.036,0.19,2.083,0.19,3.155c0,14.465-11.727,26.192-26.192,26.192
	c-1.072,0-2.119-0.06-3.155-0.19c-10.679-1.286-19.37-8.977-22.121-19.132c-0.595-2.191-0.917-4.488-0.917-6.869
	c0-14.465,11.727-26.192,26.192-26.192c2.381,0,4.679,0.321,6.87,0.917C86.803,372.319,94.506,381.022,95.792,391.701z"/>
<path style="fill:#808080;" d="M79.913,393.628c0.051,0.404,0.074,0.811,0.074,1.229c0,5.631-4.565,10.196-10.196,10.196
	c-0.417,0-0.825-0.023-1.229-0.074c-4.157-0.5-7.541-3.494-8.611-7.448c-0.232-0.852-0.357-1.748-0.357-2.674
	c0-5.631,4.565-10.196,10.196-10.196c0.927,0,1.822,0.125,2.674,0.357C76.413,386.083,79.411,389.471,79.913,393.628z"/>
<polygon style="fill:#B3B3B3;" points="490.297,465.789 512,487.581 490.297,437.578 477.872,444.721 "/>
<g>
	<path style="fill:#F7B239;" d="M442.983,418.476l47.313,47.313v-41.253l-25.192-25.192
		C462.355,409.5,453.663,417.191,442.983,418.476z"/>
	<path style="fill:#F7B239;" d="M267.778,243.271l57.813,57.813l92.602,92.602c1.286-10.679,8.989-19.382,19.132-22.121
		l-70.481-70.481L288.41,222.65L267.778,243.271z"/>
</g>
<path style="fill:#B3B3B3;" d="M416.208,391.701c-0.131,1.036-0.19,2.083-0.19,3.155c0,14.465,11.727,26.192,26.192,26.192
	c1.072,0,2.119-0.06,3.155-0.19c10.679-1.286,19.37-8.977,22.121-19.132c0.595-2.191,0.917-4.488,0.917-6.869
	c0-14.465-11.727-26.192-26.192-26.192c-2.381,0-4.679,0.321-6.87,0.917C425.197,372.319,417.494,381.022,416.208,391.701z"/>
<path style="fill:#808080;" d="M432.089,393.628c-0.051,0.404-0.074,0.811-0.074,1.229c0,5.631,4.565,10.196,10.196,10.196
	c0.417,0,0.825-0.023,1.229-0.074c4.157-0.5,7.541-3.494,8.611-7.448c0.232-0.852,0.357-1.748,0.357-2.674
	c0-5.631-4.565-10.196-10.196-10.196c-0.927,0-1.822,0.125-2.674,0.357C435.588,386.083,432.589,389.471,432.089,393.628z"/>
<polygon style="fill:#2BA5F7;" points="281.421,24.419 289.767,110.559 256.791,110.559 223.815,110.559 232.16,24.419 "/>
<g>
</g>
<g>
</g>
<g>
</g>
<g>
</g>
<g>
</g>
<g>
</g>
<g>
</g>
<g>
</g>
<g>
</g>
<g>
</g>
<g>
</g>
<g>
</g>
<g>
</g>
<g>
</g>
<g>
</g>
</svg>
