<?xml version="1.0" encoding="UTF-8" standalone="no"?>
<!-- Created with Inkscape (http://www.inkscape.org/) -->

<svg
   xmlns:dc="http://purl.org/dc/elements/1.1/"
   xmlns:cc="http://creativecommons.org/ns#"
   xmlns:rdf="http://www.w3.org/1999/02/22-rdf-syntax-ns#"
   xmlns:svg="http://www.w3.org/2000/svg"
   xmlns="http://www.w3.org/2000/svg"
   xmlns:sodipodi="http://sodipodi.sourceforge.net/DTD/sodipodi-0.dtd"
   xmlns:inkscape="http://www.inkscape.org/namespaces/inkscape"
   width="7.0082774mm"
   height="13.153504mm"
   viewBox="0 0 24.832478 46.606903"
   id="svg2"
   version="1.1"
   inkscape:version="0.91 r13725"
   sodipodi:docname="Kidney Cancer Orange.svg">
  <defs
     id="defs4">
    <clipPath
       id="clipEmfPath1"
       clipPathUnits="userSpaceOnUse">
      <path
         inkscape:connector-curvature="0"
         id="path3341"
         d="m 5.00114,-1.25029 511.36686,0 0,867.69829 -511.36686,0 z" />
    </clipPath>
    <pattern
       y="0"
       x="0"
       height="6"
       width="6"
       patternUnits="userSpaceOnUse"
       id="EMFhbasepattern" />
    <clipPath
       id="clipEmfPath1-9"
       clipPathUnits="userSpaceOnUse">
      <path
         inkscape:connector-curvature="0"
         id="path3734"
         d="m 5.00114,-1.25029 497.61386,0 0,175.04029 -497.61386,0 z" />
    </clipPath>
    <pattern
       y="0"
       x="0"
       height="6"
       width="6"
       patternUnits="userSpaceOnUse"
       id="EMFhbasepattern-1" />
    <clipPath
       id="clipEmfPath1-97"
       clipPathUnits="userSpaceOnUse">
      <path
         inkscape:connector-curvature="0"
         id="path3839"
         d="m 5.00114,-1.25029 497.61386,0 0,175.04029 -497.61386,0 z" />
    </clipPath>
    <pattern
       y="0"
       x="0"
       height="6"
       width="6"
       patternUnits="userSpaceOnUse"
       id="EMFhbasepattern-12" />
    <clipPath
       id="clipEmfPath1-97-3"
       clipPathUnits="userSpaceOnUse">
      <path
         inkscape:connector-curvature="0"
         id="path3839-7"
         d="m 5.00114,-1.25029 497.61386,0 0,175.04029 -497.61386,0 z" />
    </clipPath>
    <clipPath
       id="clipPath3949"
       clipPathUnits="userSpaceOnUse">
      <path
         inkscape:connector-curvature="0"
         id="path3951"
         d="m 5.00114,-1.25029 497.61386,0 0,175.04029 -497.61386,0 z" />
    </clipPath>
    <clipPath
       id="clipPath3953"
       clipPathUnits="userSpaceOnUse">
      <path
         inkscape:connector-curvature="0"
         id="path3955"
         d="m 5.00114,-1.25029 497.61386,0 0,175.04029 -497.61386,0 z" />
    </clipPath>
    <clipPath
       id="clipPath3957"
       clipPathUnits="userSpaceOnUse">
      <path
         inkscape:connector-curvature="0"
         id="path3959"
         d="m 5.00114,-1.25029 497.61386,0 0,175.04029 -497.61386,0 z" />
    </clipPath>
    <clipPath
       id="clipPath3961"
       clipPathUnits="userSpaceOnUse">
      <path
         inkscape:connector-curvature="0"
         id="path3963"
         d="m 5.00114,-1.25029 497.61386,0 0,175.04029 -497.61386,0 z" />
    </clipPath>
    <clipPath
       id="clipPath3965"
       clipPathUnits="userSpaceOnUse">
      <path
         inkscape:connector-curvature="0"
         id="path3967"
         d="m 5.00114,-1.25029 497.61386,0 0,175.04029 -497.61386,0 z" />
    </clipPath>
    <clipPath
       id="clipPath3969"
       clipPathUnits="userSpaceOnUse">
      <path
         inkscape:connector-curvature="0"
         id="path3971"
         d="m 5.00114,-1.25029 497.61386,0 0,175.04029 -497.61386,0 z" />
    </clipPath>
    <clipPath
       id="clipEmfPath1-97-3-6"
       clipPathUnits="userSpaceOnUse">
      <path
         inkscape:connector-curvature="0"
         id="path3839-7-5"
         d="m 5.00114,-1.25029 497.61386,0 0,175.04029 -497.61386,0 z" />
    </clipPath>
    <clipPath
       id="clipPath4087"
       clipPathUnits="userSpaceOnUse">
      <path
         inkscape:connector-curvature="0"
         id="path4089"
         d="m 5.00114,-1.25029 497.61386,0 0,175.04029 -497.61386,0 z" />
    </clipPath>
    <clipPath
       id="clipPath4091"
       clipPathUnits="userSpaceOnUse">
      <path
         inkscape:connector-curvature="0"
         id="path4093"
         d="m 5.00114,-1.25029 497.61386,0 0,175.04029 -497.61386,0 z" />
    </clipPath>
    <clipPath
       id="clipPath4095"
       clipPathUnits="userSpaceOnUse">
      <path
         inkscape:connector-curvature="0"
         id="path4097"
         d="m 5.00114,-1.25029 497.61386,0 0,175.04029 -497.61386,0 z" />
    </clipPath>
    <clipPath
       id="clipPath4099"
       clipPathUnits="userSpaceOnUse">
      <path
         inkscape:connector-curvature="0"
         id="path4101"
         d="m 5.00114,-1.25029 497.61386,0 0,175.04029 -497.61386,0 z" />
    </clipPath>
    <clipPath
       id="clipEmfPath1-97-3-6-9"
       clipPathUnits="userSpaceOnUse">
      <path
         inkscape:connector-curvature="0"
         id="path3839-7-5-8"
         d="m 5.00114,-1.25029 497.61386,0 0,175.04029 -497.61386,0 z" />
    </clipPath>
    <clipPath
       id="clipPath4191"
       clipPathUnits="userSpaceOnUse">
      <path
         inkscape:connector-curvature="0"
         id="path4193"
         d="m 5.00114,-1.25029 497.61386,0 0,175.04029 -497.61386,0 z" />
    </clipPath>
    <clipPath
       id="clipPath4195"
       clipPathUnits="userSpaceOnUse">
      <path
         inkscape:connector-curvature="0"
         id="path4197"
         d="m 5.00114,-1.25029 497.61386,0 0,175.04029 -497.61386,0 z" />
    </clipPath>
    <clipPath
       id="clipEmfPath1-5"
       clipPathUnits="userSpaceOnUse">
      <path
         inkscape:connector-curvature="0"
         id="path4256"
         d="m 5.00114,0 497.61386,0 0,175.04 -497.61386,0 z" />
    </clipPath>
    <pattern
       y="0"
       x="0"
       height="6"
       width="6"
       patternUnits="userSpaceOnUse"
       id="EMFhbasepattern-2" />
    <clipPath
       id="clipEmfPath1-1"
       clipPathUnits="userSpaceOnUse">
      <path
         inkscape:connector-curvature="0"
         id="path4361"
         d="m 5.00114,0 497.61386,0 0,175.04 -497.61386,0 z" />
    </clipPath>
    <pattern
       y="0"
       x="0"
       height="6"
       width="6"
       patternUnits="userSpaceOnUse"
       id="EMFhbasepattern-9" />
    <clipPath
       id="clipEmfPath1-1-0"
       clipPathUnits="userSpaceOnUse">
      <path
         inkscape:connector-curvature="0"
         id="path4361-5"
         d="m 5.00114,0 497.61386,0 0,175.04 -497.61386,0 z" />
    </clipPath>
    <clipPath
       id="clipPath4507"
       clipPathUnits="userSpaceOnUse">
      <path
         inkscape:connector-curvature="0"
         id="path4509"
         d="m 5.00114,0 497.61386,0 0,175.04 -497.61386,0 z" />
    </clipPath>
    <clipPath
       id="clipPath4511"
       clipPathUnits="userSpaceOnUse">
      <path
         inkscape:connector-curvature="0"
         id="path4513"
         d="m 5.00114,0 497.61386,0 0,175.04 -497.61386,0 z" />
    </clipPath>
    <clipPath
       id="clipEmfPath1-1-4"
       clipPathUnits="userSpaceOnUse">
      <path
         inkscape:connector-curvature="0"
         id="path4361-7"
         d="m 5.00114,0 497.61386,0 0,175.04 -497.61386,0 z" />
    </clipPath>
    <clipPath
       id="clipPath4507-2"
       clipPathUnits="userSpaceOnUse">
      <path
         inkscape:connector-curvature="0"
         id="path4509-7"
         d="m 5.00114,0 497.61386,0 0,175.04 -497.61386,0 z" />
    </clipPath>
    <clipPath
       id="clipPath4511-0"
       clipPathUnits="userSpaceOnUse">
      <path
         inkscape:connector-curvature="0"
         id="path4513-3"
         d="m 5.00114,0 497.61386,0 0,175.04 -497.61386,0 z" />
    </clipPath>
    <clipPath
       id="clipEmfPath1-1-4-0"
       clipPathUnits="userSpaceOnUse">
      <path
         inkscape:connector-curvature="0"
         id="path4361-7-2"
         d="m 5.00114,0 497.61386,0 0,175.04 -497.61386,0 z" />
    </clipPath>
    <clipPath
       id="clipPath4647"
       clipPathUnits="userSpaceOnUse">
      <path
         inkscape:connector-curvature="0"
         id="path4649"
         d="m 5.00114,0 497.61386,0 0,175.04 -497.61386,0 z" />
    </clipPath>
    <clipPath
       id="clipPath4651"
       clipPathUnits="userSpaceOnUse">
      <path
         inkscape:connector-curvature="0"
         id="path4653"
         d="m 5.00114,0 497.61386,0 0,175.04 -497.61386,0 z" />
    </clipPath>
    <clipPath
       id="clipEmfPath1-3"
       clipPathUnits="userSpaceOnUse">
      <path
         inkscape:connector-curvature="0"
         id="path4708"
         d="m 5.00114,0 385.08786,0 0,175.04 -385.08786,0 z" />
    </clipPath>
    <pattern
       y="0"
       x="0"
       height="6"
       width="6"
       patternUnits="userSpaceOnUse"
       id="EMFhbasepattern-8" />
    <clipPath
       id="clipEmfPath1-3-6"
       clipPathUnits="userSpaceOnUse">
      <path
         inkscape:connector-curvature="0"
         id="path4708-4"
         d="m 5.00114,0 385.08786,0 0,175.04 -385.08786,0 z" />
    </clipPath>
    <clipPath
       id="clipPath4800"
       clipPathUnits="userSpaceOnUse">
      <path
         inkscape:connector-curvature="0"
         id="path4802"
         d="m 5.00114,0 385.08786,0 0,175.04 -385.08786,0 z" />
    </clipPath>
    <clipPath
       id="clipPath4804"
       clipPathUnits="userSpaceOnUse">
      <path
         inkscape:connector-curvature="0"
         id="path4806"
         d="m 5.00114,0 385.08786,0 0,175.04 -385.08786,0 z" />
    </clipPath>
    <clipPath
       id="clipEmfPath1-3-6-7"
       clipPathUnits="userSpaceOnUse">
      <path
         inkscape:connector-curvature="0"
         id="path4708-4-9"
         d="m 5.00114,0 385.08786,0 0,175.04 -385.08786,0 z" />
    </clipPath>
    <clipPath
       id="clipPath4888"
       clipPathUnits="userSpaceOnUse">
      <path
         inkscape:connector-curvature="0"
         id="path4890"
         d="m 5.00114,0 385.08786,0 0,175.04 -385.08786,0 z" />
    </clipPath>
    <clipPath
       id="clipPath4892"
       clipPathUnits="userSpaceOnUse">
      <path
         inkscape:connector-curvature="0"
         id="path4894"
         d="m 5.00114,0 385.08786,0 0,175.04 -385.08786,0 z" />
    </clipPath>
    <clipPath
       id="clipEmfPath1-3-6-7-3"
       clipPathUnits="userSpaceOnUse">
      <path
         inkscape:connector-curvature="0"
         id="path4708-4-9-0"
         d="m 5.00114,0 385.08786,0 0,175.04 -385.08786,0 z" />
    </clipPath>
    <clipPath
       id="clipPath4958"
       clipPathUnits="userSpaceOnUse">
      <path
         inkscape:connector-curvature="0"
         id="path4960"
         d="m 5.00114,0 385.08786,0 0,175.04 -385.08786,0 z" />
    </clipPath>
    <clipPath
       id="clipPath4962"
       clipPathUnits="userSpaceOnUse">
      <path
         inkscape:connector-curvature="0"
         id="path4964"
         d="m 5.00114,0 385.08786,0 0,175.04 -385.08786,0 z" />
    </clipPath>
    <clipPath
       id="clipEmfPath1-7"
       clipPathUnits="userSpaceOnUse">
      <path
         inkscape:connector-curvature="0"
         id="path5005"
         d="m 3.75086,0 497.61414,0 0,518.869 -497.61414,0 z" />
    </clipPath>
    <pattern
       y="0"
       x="0"
       height="6"
       width="6"
       patternUnits="userSpaceOnUse"
       id="EMFhbasepattern-81" />
    <clipPath
       id="clipEmfPath1-7-3"
       clipPathUnits="userSpaceOnUse">
      <path
         inkscape:connector-curvature="0"
         id="path5005-1"
         d="m 3.75086,0 497.61414,0 0,518.869 -497.61414,0 z" />
    </clipPath>
    <clipPath
       id="clipPath5133"
       clipPathUnits="userSpaceOnUse">
      <path
         inkscape:connector-curvature="0"
         id="path5135"
         d="m 3.75086,0 497.61414,0 0,518.869 -497.61414,0 z" />
    </clipPath>
    <clipPath
       id="clipPath5137"
       clipPathUnits="userSpaceOnUse">
      <path
         inkscape:connector-curvature="0"
         id="path5139"
         d="m 3.75086,0 497.61414,0 0,518.869 -497.61414,0 z" />
    </clipPath>
    <clipPath
       id="clipPath5141"
       clipPathUnits="userSpaceOnUse">
      <path
         inkscape:connector-curvature="0"
         id="path5143"
         d="m 3.75086,0 497.61414,0 0,518.869 -497.61414,0 z" />
    </clipPath>
    <clipPath
       id="clipPath5145"
       clipPathUnits="userSpaceOnUse">
      <path
         inkscape:connector-curvature="0"
         id="path5147"
         d="m 3.75086,0 497.61414,0 0,518.869 -497.61414,0 z" />
    </clipPath>
    <clipPath
       id="clipPath5149"
       clipPathUnits="userSpaceOnUse">
      <path
         inkscape:connector-curvature="0"
         id="path5151"
         d="m 3.75086,0 497.61414,0 0,518.869 -497.61414,0 z" />
    </clipPath>
    <clipPath
       id="clipPath5153"
       clipPathUnits="userSpaceOnUse">
      <path
         inkscape:connector-curvature="0"
         id="path5155"
         d="m 3.75086,0 497.61414,0 0,518.869 -497.61414,0 z" />
    </clipPath>
    <clipPath
       id="clipPath5157"
       clipPathUnits="userSpaceOnUse">
      <path
         inkscape:connector-curvature="0"
         id="path5159"
         d="m 3.75086,0 497.61414,0 0,518.869 -497.61414,0 z" />
    </clipPath>
    <clipPath
       id="clipPath5161"
       clipPathUnits="userSpaceOnUse">
      <path
         inkscape:connector-curvature="0"
         id="path5163"
         d="m 3.75086,0 497.61414,0 0,518.869 -497.61414,0 z" />
    </clipPath>
    <clipPath
       id="clipEmfPath1-7-6"
       clipPathUnits="userSpaceOnUse">
      <path
         inkscape:connector-curvature="0"
         id="path5005-6"
         d="m 3.75086,0 497.61414,0 0,518.869 -497.61414,0 z" />
    </clipPath>
    <clipPath
       id="clipPath5133-5"
       clipPathUnits="userSpaceOnUse">
      <path
         inkscape:connector-curvature="0"
         id="path5135-3"
         d="m 3.75086,0 497.61414,0 0,518.869 -497.61414,0 z" />
    </clipPath>
    <clipPath
       id="clipPath5137-1"
       clipPathUnits="userSpaceOnUse">
      <path
         inkscape:connector-curvature="0"
         id="path5139-5"
         d="m 3.75086,0 497.61414,0 0,518.869 -497.61414,0 z" />
    </clipPath>
    <clipPath
       id="clipPath5141-9"
       clipPathUnits="userSpaceOnUse">
      <path
         inkscape:connector-curvature="0"
         id="path5143-0"
         d="m 3.75086,0 497.61414,0 0,518.869 -497.61414,0 z" />
    </clipPath>
    <clipPath
       id="clipPath5145-4"
       clipPathUnits="userSpaceOnUse">
      <path
         inkscape:connector-curvature="0"
         id="path5147-9"
         d="m 3.75086,0 497.61414,0 0,518.869 -497.61414,0 z" />
    </clipPath>
    <clipPath
       id="clipPath5149-6"
       clipPathUnits="userSpaceOnUse">
      <path
         inkscape:connector-curvature="0"
         id="path5151-8"
         d="m 3.75086,0 497.61414,0 0,518.869 -497.61414,0 z" />
    </clipPath>
    <clipPath
       id="clipPath5153-7"
       clipPathUnits="userSpaceOnUse">
      <path
         inkscape:connector-curvature="0"
         id="path5155-5"
         d="m 3.75086,0 497.61414,0 0,518.869 -497.61414,0 z" />
    </clipPath>
    <clipPath
       id="clipPath5157-4"
       clipPathUnits="userSpaceOnUse">
      <path
         inkscape:connector-curvature="0"
         id="path5159-0"
         d="m 3.75086,0 497.61414,0 0,518.869 -497.61414,0 z" />
    </clipPath>
    <clipPath
       id="clipPath5161-3"
       clipPathUnits="userSpaceOnUse">
      <path
         inkscape:connector-curvature="0"
         id="path5163-6"
         d="m 3.75086,0 497.61414,0 0,518.869 -497.61414,0 z" />
    </clipPath>
  </defs>
  <sodipodi:namedview
     id="base"
     pagecolor="#ffffff"
     bordercolor="#666666"
     borderopacity="1.0"
     inkscape:pageopacity="0.0"
     inkscape:pageshadow="2"
     inkscape:zoom="5.6"
     inkscape:cx="23.278326"
     inkscape:cy="22.999517"
     inkscape:document-units="px"
     inkscape:current-layer="layer1"
     showgrid="false"
     fit-margin-top="0"
     fit-margin-left="0"
     fit-margin-right="0"
     fit-margin-bottom="0"
     inkscape:window-width="1366"
     inkscape:window-height="706"
     inkscape:window-x="-8"
     inkscape:window-y="-8"
     inkscape:window-maximized="1" />
  <metadata
     id="metadata7">
    <rdf:RDF>
      <cc:Work
         rdf:about="">
        <dc:format>image/svg+xml</dc:format>
        <dc:type
           rdf:resource="http://purl.org/dc/dcmitype/StillImage" />
        <dc:title></dc:title>
      </cc:Work>
    </rdf:RDF>
  </metadata>
  <g
     inkscape:label="Layer 1"
     inkscape:groupmode="layer"
     id="layer1"
     transform="translate(-150.20845,-481.64841)">
    <path
       inkscape:connector-curvature="0"
       id="path5044"
       d="m 150.85926,493.66421 c 0.022,-1.30132 2.66842,-11.8649 11.95296,-11.53414 9.30656,0.35278 11.53414,10.34317 11.51213,11.64449 -0.0223,1.30105 -7.69677,-3.79335 -11.62248,-3.81536 -3.90341,0 -11.8649,5.00606 -11.84261,3.70501 z"
       style="fill:#ff6600;fill-opacity:1;fill-rule:evenodd;stroke:none" />
    <path
       inkscape:connector-curvature="0"
       id="path5046"
       d="m 150.85926,493.66421 c 0.022,-1.30132 2.66842,-11.8649 11.95296,-11.53414 9.30656,0.35278 11.53414,10.34317 11.51213,11.64449 -0.0223,1.30105 -7.69677,-3.79335 -11.62248,-3.81536 -3.90341,0 -11.8649,5.00606 -11.84261,3.70501"
       style="fill:none;stroke:#000000;stroke-width:0.94830716px;stroke-linecap:butt;stroke-linejoin:round;stroke-miterlimit:4;stroke-dasharray:none;stroke-opacity:1" />
    <path
       inkscape:connector-curvature="0"
       id="path5048"
       d="m 169.4944,484.60008 c 0.86021,0.97028 7.03523,6.26336 4.23446,12.74713 -2.80077,6.48378 -14.97443,25.05287 -18.21632,30.434 -1.4557,-2.91112 -1.91882,-3.13154 -4.82995,-8.04954 3.26419,-5.60183 14.68798,-22.40647 17.7975,-28.2067 3.10953,-5.77794 -0.022,-7.43204 1.01431,-6.92489 z"
       style="fill:#ff6600;fill-opacity:1;fill-rule:evenodd;stroke:none" />
    <path
       transform="matrix(0.28222222,0,0,0.28222222,88.55758,382.55784)"
       inkscape:connector-curvature="0"
       id="path5050"
       d="m 286.784,361.567 c 3.048,3.438 24.928,22.193 15.004,45.167 -9.924,22.974 -53.059,88.77 -64.546,107.837 -5.158,-10.315 -6.799,-11.096 -17.114,-28.522 11.566,-19.849 52.044,-79.393 63.062,-99.945 11.018,-20.473 -0.078,-26.334 3.594,-24.537"
       clip-path="url(#clipEmfPath1-7-6)"
       style="fill:none;stroke:#000000;stroke-width:3.36014342px;stroke-linecap:butt;stroke-linejoin:round;stroke-miterlimit:4;stroke-dasharray:none;stroke-opacity:1" />
    <path
       inkscape:connector-curvature="0"
       id="path5052"
       d="m 155.73296,484.53404 c -0.88223,0.97028 -7.05725,6.26308 -4.25619,12.74685 2.80077,6.48377 15.01845,25.05315 18.26034,30.434 1.45542,-2.91084 1.91855,-3.13154 4.82967,-8.07156 -3.2639,-5.57953 -14.70971,-22.38445 -17.81923,-28.1844 -3.13182,-5.80023 0.022,-7.43232 -1.01459,-6.92489 z"
       style="fill:#ff6600;fill-opacity:1;fill-rule:evenodd;stroke:none" />
    <path
       inkscape:connector-curvature="0"
       id="path5054"
       d="m 155.73296,484.53404 c -0.88223,0.97028 -7.05725,6.26308 -4.25619,12.74685 2.80077,6.48377 15.01845,25.05315 18.26034,30.434 1.45542,-2.91084 1.91855,-3.13154 4.82967,-8.07156 -3.2639,-5.57953 -14.70971,-22.38445 -17.81923,-28.1844 -3.13182,-5.80023 0.022,-7.43232 -1.01459,-6.92489"
       style="fill:none;stroke:#000000;stroke-width:0.94830716px;stroke-linecap:butt;stroke-linejoin:round;stroke-miterlimit:4;stroke-dasharray:none;stroke-opacity:1" />
  </g>
</svg>
